<svg width="60" height="60" viewBox="0 0 60 60" fill="none" xmlns="http://www.w3.org/2000/svg">
<path d="M57.1071 12.3085C55.6882 11.0564 53.9053 10.3199 52.0459 10.1879C51.6206 8.69307 50.7917 7.33463 49.6302 6.2585C48.0447 4.78956 45.9804 3.98062 43.8178 3.98062C42.1123 3.98062 40.4577 4.49835 39.065 5.42753C38.4243 4.24851 37.5547 3.19359 36.5027 2.33789C34.6724 0.849256 32.3631 0.0292969 29.9999 0.0292969C27.6367 0.0292969 25.3274 0.849256 23.4972 2.33789C22.4452 3.19359 21.5757 4.24851 20.9349 5.42753C19.5421 4.49835 17.8876 3.98062 16.182 3.98062C14.0195 3.98062 11.9553 4.78956 10.3698 6.2585C9.20846 7.3344 8.37971 8.6926 7.95432 10.1869C3.51632 10.496 0 14.2054 0 18.7207C0 21.172 1.0534 23.5082 2.89007 25.1306C4.30347 26.3789 6.07886 27.1154 7.93147 27.2519C8.93108 30.8889 12.2798 33.545 16.1822 33.545C17.9023 33.545 19.5693 33.019 20.9687 32.0758C21.6125 33.2412 22.4807 34.2834 23.5272 35.1279C25.3522 36.601 27.6509 37.4122 30.0001 37.4122C32.3492 37.4122 34.6481 36.601 36.4729 35.1279C37.5193 34.2834 38.3875 33.2412 39.0313 32.0758C40.4307 33.019 42.0977 33.545 43.8178 33.545C47.7202 33.545 51.0689 30.8888 52.0685 27.2519C53.921 27.1154 55.6966 26.3789 57.11 25.1306C58.9466 23.5084 60 21.1721 60 18.7208C60 16.2681 58.9455 13.9308 57.1071 12.3085ZM54.7826 22.4956C53.6986 23.453 52.2526 23.8995 50.815 23.7207C50.3353 23.6612 49.853 23.8012 49.4802 24.1084C49.1074 24.4154 48.8774 24.8623 48.8442 25.3441C48.6629 27.9713 46.455 30.0294 43.8177 30.0294C42.198 30.0294 40.7172 29.2795 39.7553 27.9719C39.3479 27.4181 38.655 27.1525 37.9819 27.2924C37.3088 27.4322 36.7789 27.9516 36.6257 28.6219C35.9159 31.7275 33.1913 33.8967 29.9998 33.8967C26.8083 33.8967 24.0836 31.7276 23.3738 28.6219C23.2207 27.9517 22.6907 27.4322 22.0176 27.2924C21.8984 27.2677 21.7787 27.2556 21.66 27.2556C21.1081 27.2556 20.5794 27.5162 20.2441 27.9719C19.2822 29.2795 17.8016 30.0294 16.1817 30.0294C13.5444 30.0294 11.3366 27.9713 11.1552 25.3441C11.1219 24.8623 10.8919 24.4154 10.5192 24.1084C10.1465 23.8013 9.66397 23.6614 9.18443 23.7207C7.74678 23.8995 6.30093 23.4532 5.21694 22.4956C4.13589 21.5404 3.51562 20.1645 3.51562 18.7207C3.51562 15.9422 5.77616 13.6816 8.55467 13.6816C8.76631 13.6816 8.97994 13.695 9.18971 13.7212C9.66561 13.7808 10.1448 13.6435 10.517 13.3411C10.889 13.0386 11.1214 12.5974 11.1602 12.1195C11.371 9.52697 13.577 7.49623 16.1822 7.49623C17.795 7.49623 19.2719 8.24096 20.234 9.53939C20.6442 10.0929 21.3398 10.356 22.0135 10.2118C22.6872 10.0679 23.2147 9.54385 23.3629 8.87108C24.043 5.78483 26.8342 3.54491 30.0001 3.54491C33.1658 3.54491 35.957 5.78483 36.6371 8.87108C36.7853 9.54385 37.3129 10.0679 37.9865 10.2118C38.6604 10.3558 39.3559 10.0928 39.766 9.53939C40.7282 8.24096 42.205 7.49623 43.8178 7.49623C46.423 7.49623 48.629 9.52697 48.8398 12.1195C48.8787 12.5974 49.1111 13.0387 49.4831 13.3412C49.8552 13.6436 50.3352 13.781 50.8105 13.7212C52.2489 13.5415 53.696 13.9869 54.7811 14.9444C55.8636 15.8997 56.4845 17.2761 56.4845 18.7207C56.4844 20.1645 55.8641 21.5404 54.7826 22.4956Z" fill="#172A95"/>
<path d="M18.4583 41.0449H17.8387L18.2768 40.6069C18.9633 39.9204 18.9633 38.8075 18.2768 38.121C17.5904 37.4345 16.4774 37.4345 15.7909 38.121L15.3527 38.5591V37.881C15.3527 36.9102 14.5657 36.1232 13.5949 36.1232C12.6241 36.1232 11.8371 36.9102 11.8371 37.881V38.5591L11.3576 38.0796C10.6712 37.3931 9.55815 37.3931 8.87167 38.0796C8.18518 38.7661 8.18518 39.879 8.87167 40.5655L9.3512 41.045H8.73163C7.76085 41.045 6.97382 41.8321 6.97382 42.8029C6.97382 43.7736 7.76085 44.5607 8.73163 44.5607H9.35132L8.91315 44.9988C8.22667 45.6853 8.22667 46.7982 8.91315 47.4847C9.25639 47.828 9.70628 47.9997 10.156 47.9997C10.6058 47.9997 11.0558 47.8281 11.3989 47.4847L11.837 47.0467V47.7248C11.837 48.6956 12.624 49.4827 13.5948 49.4827C14.5656 49.4827 15.3526 48.6956 15.3526 47.7248V47.0466L15.8321 47.5261C16.1754 47.8693 16.6253 48.041 17.075 48.041C17.5248 48.041 17.9748 47.8695 18.3179 47.5261C19.0044 46.8396 19.0044 45.7267 18.3179 45.0402L17.8384 44.5607H18.4581C19.4289 44.5607 20.2159 43.7736 20.2159 42.8029C20.2159 41.8321 19.4291 41.0449 18.4583 41.0449Z" fill="#F5A84C"/>
<path d="M32.15 47.5012C31.6409 46.7545 31.0636 45.9082 30.0001 45.9082C28.9366 45.9082 28.3595 46.7545 27.8502 47.5012C27.4474 48.0919 26.9931 48.8391 26.5709 49.6051C25.3471 51.8258 24.7266 53.5391 24.7266 54.6973C24.7266 57.605 27.0922 59.9707 30 59.9707C32.9078 59.9707 35.2734 57.605 35.2734 54.6973C35.2734 53.539 34.6529 51.8257 33.4291 49.6051C33.0071 48.8391 32.5528 48.0919 32.15 47.5012ZM30 56.4551C29.0307 56.4551 28.2422 55.6665 28.2422 54.6973C28.2422 54.0108 29.1652 52.1208 30 50.6784C30.835 52.1208 31.7578 54.0108 31.7578 54.6973C31.7579 55.6665 30.9694 56.4551 30 56.4551Z" fill="#F5A84C"/>
<path d="M50.1869 37.3059C49.6778 36.5592 49.1005 35.7129 48.037 35.7129C46.9735 35.7129 46.3964 36.5592 45.8871 37.3059C45.4843 37.8966 45.03 38.6437 44.6078 39.4098C43.384 41.6305 42.7635 43.3437 42.7635 44.502C42.7635 47.4097 45.1291 49.7754 48.0369 49.7754C50.9447 49.7754 53.3103 47.4097 53.3103 44.502C53.3103 43.3437 52.6898 41.6305 51.4661 39.4098C51.0441 38.6437 50.5897 37.8966 50.1869 37.3059ZM48.037 46.2598C47.0678 46.2598 46.2792 45.4712 46.2792 44.502C46.2792 43.8155 47.2022 41.9255 48.037 40.4831C48.872 41.9255 49.7948 43.8155 49.7948 44.502C49.7948 45.4712 49.0063 46.2598 48.037 46.2598Z" fill="#F5A84C"/>
</svg>
