<svg width="60" height="60" viewBox="0 0 60 60" fill="none" xmlns="http://www.w3.org/2000/svg">
<g clip-path="url(#clip0)">
<path d="M58.2968 14.315C58.184 14.3111 55.8667 14.2329 52.4651 14.3081V7.3337C52.4651 6.30559 51.5872 5.49017 50.5535 5.57512C43.7709 6.14135 35.1417 9.13841 30 14.6049C24.8584 9.13841 16.2291 6.14135 9.44647 5.57512C8.41471 5.49112 7.53494 6.30288 7.53494 7.3337V14.4966C5.60224 14.4237 3.77412 14.3723 1.81706 14.3148C0.83 14.2836 0 15.0786 0 16.0786V48.2163C0 49.145 0.719647 49.9148 1.64624 49.977C8.666 50.4495 20.4247 50.5027 29.3078 54.2914C30.0994 54.6295 30.8101 54.2411 30.6925 54.2914C39.5753 50.5028 51.3319 50.4497 58.354 49.977C59.2805 49.9148 60.0002 49.145 60.0002 48.2163V16.0786C60 15.1279 59.2469 14.3482 58.2968 14.315ZM48.9357 9.31853V39.5642C43.8467 40.7025 37.3974 43.1317 31.7647 48.2824C31.7647 46.7289 31.7647 18.7889 31.7647 17.9486C35.6259 13.131 42.9384 10.2272 48.9357 9.31853ZM11.0644 9.31853C17.0616 10.2272 24.3741 13.131 28.2353 17.9486V48.2824C22.6026 43.1317 16.1533 40.7025 11.0644 39.5642V9.31853ZM3.52941 46.5557V17.8961C4.79306 17.9335 6.14459 17.9757 7.53494 18.0288V41.0025C7.53494 41.8516 8.13965 42.5803 8.97412 42.7369C13.0036 43.4932 18.2436 45.1349 23.1274 48.6697C16.1598 47.107 8.86659 46.8558 3.52941 46.5557ZM56.4706 46.5557C51.1421 46.8554 43.8429 47.1063 36.8725 48.6697C41.7562 45.1349 46.9964 43.4932 51.0258 42.7369C51.8602 42.5803 52.4649 41.8516 52.4649 41.0025V17.8386C54.0892 17.8023 55.4726 17.8018 56.4705 17.8109V46.5557H56.4706Z" fill="#172A95"/>
<path d="M23.6597 22.0136C22.2928 21.0614 19.9365 19.8925 17.4218 19.4676C16.4612 19.3045 15.5501 19.9527 15.3877 20.9136C15.2253 21.8745 15.8727 22.7853 16.8338 22.9476C18.7753 23.2757 20.6374 24.2095 21.6421 24.9095C22.4415 25.4664 23.5415 25.2702 24.0988 24.4703C24.6559 23.6707 24.4593 22.5707 23.6597 22.0136Z" fill="#F5A84C"/>
<path d="M23.483 31.9513C22.2254 31.1834 19.7658 29.8359 17.4218 29.4398C16.4612 29.2769 15.5501 29.9247 15.3877 30.8858C15.2253 31.8468 15.8727 32.7574 16.8338 32.9198C18.6598 33.2284 20.8056 34.4516 21.6433 34.9634C22.4761 35.4718 23.5618 35.208 24.0692 34.3772C24.5772 33.5454 24.3147 32.4594 23.483 31.9513Z" fill="#F5A84C"/>
<path d="M38.3578 24.9095C39.3625 24.2095 41.2247 23.2758 43.1662 22.9477C44.1271 22.7853 44.7745 21.8746 44.6123 20.9137C44.45 19.9526 43.5389 19.3043 42.5782 19.4677C40.0635 19.8925 37.7071 21.0614 36.3403 22.0137C35.5407 22.5707 35.3441 23.6707 35.9011 24.4704C36.4585 25.2705 37.5589 25.4663 38.3578 24.9095Z" fill="#F5A84C"/>
<path d="M42.5783 29.4399C40.2343 29.8359 37.7746 31.1834 36.5171 31.9514C35.6853 32.4594 35.4229 33.5455 35.9309 34.3773C36.4389 35.2089 37.5249 35.4714 38.3568 34.9635C39.1945 34.4518 41.3403 33.2285 43.1663 32.9199C44.1272 32.7575 44.7746 31.8469 44.6124 30.8859C44.4499 29.9248 43.539 29.2765 42.5783 29.4399Z" fill="#F5A84C"/>
</g>
<defs>
<clipPath id="clip0">
<rect width="60" height="60" fill="white"/>
</clipPath>
</defs>
</svg>
