<svg width="60" height="60" viewBox="0 0 60 60" fill="none" xmlns="http://www.w3.org/2000/svg">
<path d="M30 0C19.687 0 11.2967 8.39033 11.2967 18.7033C11.2967 24.6386 14.095 30.1771 18.8278 33.7037V35.2656C17.6752 36.2786 16.9455 37.7622 16.9455 39.4138C16.9455 40.8681 17.5113 42.1925 18.4332 43.1798C17.5113 44.1672 16.9455 45.4911 16.9455 46.9454C16.9455 49.4228 18.5847 51.5244 20.836 52.222C21.5602 56.6275 25.3926 59.9999 30 59.9999C34.6073 59.9999 38.4402 56.6275 39.1644 52.222C41.4152 51.5239 43.0549 49.4228 43.0549 46.9449C43.0549 45.4911 42.4891 44.1668 41.5672 43.1794C42.4891 42.192 43.0549 40.8681 43.0549 39.4138C43.0549 37.7622 42.3252 36.2786 41.1721 35.2651V33.7037C45.9049 30.1771 48.7032 24.6386 48.7032 18.7033C48.7032 8.39033 40.3129 0 30 0ZM37.5315 37.4061C38.6384 37.4061 39.5393 38.307 39.5393 39.4138C39.5393 40.5212 38.6384 41.422 37.5315 41.422H22.4688C21.3615 41.422 20.4606 40.5212 20.4606 39.4138C20.4606 38.307 21.3615 37.4061 22.4688 37.4061H37.5315ZM30 56.4843C27.4292 56.4843 25.2456 54.7951 24.4999 52.4688H35.5C34.7547 54.7956 32.5708 56.4843 30 56.4843ZM37.5315 48.9532H22.4688C21.3615 48.9532 20.4606 48.0523 20.4606 46.9454C20.4606 45.8381 21.3615 44.9377 22.4688 44.9377H37.5315C38.6384 44.9377 39.5393 45.8381 39.5393 46.9454C39.5393 48.0523 38.6384 48.9532 37.5315 48.9532ZM38.4365 31.3334C37.949 31.6598 37.6565 32.2077 37.6565 32.7941V33.8937C37.6148 33.8928 37.5732 33.8905 37.5315 33.8905H35.5233V26.9627L38.0474 24.4386C38.7341 23.7519 38.7341 22.6391 38.0474 21.9525C37.3612 21.2658 36.248 21.2658 35.5618 21.9525L32.5227 24.9916C32.1931 25.3211 32.0077 25.7679 32.0077 26.2344V33.8905H27.9922V26.2344C27.9922 25.7684 27.8068 25.3211 27.4772 24.9916L24.4381 21.9525C23.752 21.2663 22.6391 21.2663 21.9525 21.9525C21.2658 22.6391 21.2658 23.7519 21.9525 24.4386L24.4766 26.9627V33.8909H22.4688C22.4267 33.8909 22.3851 33.8928 22.3434 33.8937V32.7941C22.3434 32.2077 22.0509 31.6598 21.5634 31.3334C17.3364 28.5035 14.8123 23.7821 14.8123 18.7033C14.8123 10.3285 21.6257 3.51562 30 3.51562C38.3743 3.51562 45.1876 10.3285 45.1876 18.7033C45.1876 23.7821 42.6635 28.5035 38.4365 31.3334Z" fill="#172A95"/>
<path d="M7.28119 18.7033C7.28119 17.7324 6.49429 16.9455 5.52338 16.9455H1.75781C0.786896 16.9455 0 17.7324 0 18.7033C0 19.6738 0.786896 20.4611 1.75781 20.4611H5.52338C6.49429 20.4611 7.28119 19.6738 7.28119 18.7033Z" fill="#F5A84C"/>
<path d="M58.2422 16.9455H54.4766C53.5062 16.9455 52.7188 17.7324 52.7188 18.7033C52.7188 19.6738 53.5062 20.4611 54.4766 20.4611H58.2422C59.2131 20.4611 60 19.6738 60 18.7033C60 17.7324 59.2131 16.9455 58.2422 16.9455Z" fill="#F5A84C"/>
<path d="M7.92346 29.419L4.66235 31.3018C3.8219 31.7875 3.53396 32.8623 4.01919 33.7033C4.34466 34.2672 4.93564 34.5822 5.54309 34.5822C5.84109 34.5822 6.14367 34.5066 6.42016 34.3464L9.68127 32.4641C10.5222 31.9784 10.8101 30.9036 10.3249 30.0627C9.83966 29.2217 8.76437 28.9338 7.92346 29.419Z" fill="#F5A84C"/>
<path d="M51.199 8.22317C51.497 8.22317 51.7992 8.14719 52.0761 7.98743L55.3377 6.10418C56.1781 5.61895 56.4665 4.54413 55.9808 3.70321C55.4951 2.8623 54.4203 2.57437 53.5799 3.06005L50.3183 4.94284C49.4778 5.42807 49.1894 6.50335 49.6751 7.34381C50.0006 7.90777 50.5916 8.22317 51.199 8.22317Z" fill="#F5A84C"/>
<path d="M55.3373 31.3018L52.0762 29.4195C51.2353 28.9343 50.16 29.2222 49.6747 30.0631C49.1895 30.9036 49.4779 31.9789 50.3184 32.4641L53.5799 34.3464C53.8564 34.5062 54.1585 34.5822 54.457 34.5822C55.0645 34.5822 55.6554 34.2668 55.9809 33.7028C56.4666 32.8623 56.1782 31.7871 55.3373 31.3018Z" fill="#F5A84C"/>
<path d="M9.68172 4.94239L6.42061 3.06007C5.5797 2.57438 4.50487 2.86277 4.01964 3.70368C3.53395 4.5446 3.82234 5.61943 4.6628 6.10466L7.9239 7.98744C8.20085 8.1472 8.50298 8.22319 8.80098 8.22319C9.40889 8.22319 9.9994 7.90779 10.3253 7.34382C10.8106 6.50291 10.5222 5.42808 9.68172 4.94239Z" fill="#F5A84C"/>
</svg>
