<svg width="60" height="60" viewBox="0 0 60 60" fill="none" xmlns="http://www.w3.org/2000/svg">
<path d="M22.95 46.4525C21.9809 46.4525 21.1922 45.6638 21.1922 44.6947C21.1922 43.7238 20.4053 42.9369 19.4344 42.9369C18.4634 42.9369 17.6765 43.7238 17.6765 44.6947C17.6765 46.9931 19.1551 48.9514 21.2109 49.6719V51.2109C21.2109 52.1819 21.9978 52.9688 22.9688 52.9688C23.9397 52.9688 24.7266 52.1819 24.7266 51.2109V49.6591C26.7627 48.9285 28.2234 46.9794 28.2234 44.6947C28.2234 41.787 25.8577 39.4212 22.95 39.4212C21.9809 39.4212 21.1922 38.6325 21.1922 37.6634C21.1922 36.6939 21.9809 35.9056 22.95 35.9056C23.9191 35.9056 24.7078 36.6939 24.7078 37.6634C24.7078 38.6343 25.4947 39.4212 26.4656 39.4212C27.4365 39.4212 28.2234 38.6343 28.2234 37.6634C28.2234 35.3787 26.7627 33.4296 24.7266 32.6985V30.1172C24.7266 29.1463 23.9397 28.3594 22.9688 28.3594C21.9978 28.3594 21.2109 29.1463 21.2109 30.1172V32.6857C19.1551 33.4062 17.6765 35.3645 17.6765 37.6634C17.6765 40.5711 20.0423 42.9369 22.95 42.9369C23.9191 42.9369 24.7078 43.7251 24.7078 44.6947C24.7078 45.6638 23.9191 46.4525 22.95 46.4525Z" fill="#F5A84C"/>
<path d="M7.16492 57.1294C10.8229 59.0877 15.845 60 22.9688 60C28.765 60 33.1274 59.3994 36.5167 58.1223C37.4849 59.2694 38.9319 60 40.5469 60H54.7266C57.6343 60 60 57.6343 60 54.7266C60 53.3771 59.4896 52.1448 58.6528 51.2109C59.4901 50.2771 60 49.0448 60 47.6953C60 46.3458 59.4896 45.1135 58.6528 44.1797C59.4901 43.2458 60 42.0135 60 40.6641C60 39.3146 59.4896 38.0823 58.6528 37.1484C59.4901 36.2146 60 34.9823 60 33.6328C60 30.7251 57.6343 28.3594 54.7266 28.3594H40.5469C40.3757 28.3594 40.2063 28.3681 40.0392 28.3846C38.275 26.2477 36.2077 24.456 33.9299 23.0818C34.7644 22.1489 35.2734 20.918 35.2734 19.5703C35.2734 17.4696 34.0384 15.6523 32.2563 14.805L35.1869 5.81863C35.3613 5.28305 35.2689 4.69666 34.9384 4.24118C34.6074 3.78525 34.0787 3.51562 33.5156 3.51562H27.9401C27.2141 1.46942 25.2603 0 22.9688 0C20.6767 0 18.7221 1.46942 17.9965 3.51562H12.4219C11.8588 3.51562 11.3301 3.78525 10.9991 4.24118C10.6686 4.69666 10.5762 5.28305 10.7506 5.81863L13.6812 14.805C11.8991 15.6523 10.6641 17.4696 10.6641 19.5703C10.6641 20.9189 11.1736 22.1507 12.0094 23.0841C4.95667 27.3409 0 35.4254 0 44.1797C0 50.2272 2.41058 54.5837 7.16492 57.1294ZM56.4844 40.6641C56.4844 41.6331 55.6956 42.4219 54.7266 42.4219H40.5469C39.5778 42.4219 38.7891 41.6331 38.7891 40.6641C38.7891 39.695 39.5778 38.9062 40.5469 38.9062H54.7266C55.6956 38.9062 56.4844 39.695 56.4844 40.6641ZM56.4844 47.6953C56.4844 48.6644 55.6956 49.4531 54.7266 49.4531H40.5469C39.5778 49.4531 38.7891 48.6644 38.7891 47.6953C38.7891 46.7262 39.5778 45.9375 40.5469 45.9375H54.7266C55.6956 45.9375 56.4844 46.7262 56.4844 47.6953ZM54.7266 56.4844H40.5469C39.5778 56.4844 38.7891 55.6956 38.7891 54.7266C38.7891 53.7575 39.5778 52.9688 40.5469 52.9688H54.7266C55.6956 52.9688 56.4844 53.7575 56.4844 54.7266C56.4844 55.6956 55.6956 56.4844 54.7266 56.4844ZM56.4844 33.6328C56.4844 34.6019 55.6956 35.3906 54.7266 35.3906H40.5469C39.5778 35.3906 38.7891 34.6019 38.7891 33.6328C38.7891 32.6637 39.5778 31.875 40.5469 31.875H54.7266C55.6956 31.875 56.4844 32.6637 56.4844 33.6328ZM29.9496 21.3281H15.9883C15.9727 21.3277 15.9572 21.3281 15.9416 21.3281H15.9375C14.9684 21.3281 14.1797 20.5394 14.1797 19.5703C14.1797 18.6031 14.9652 17.8157 15.932 17.813H15.937C15.9412 17.813 15.9453 17.8125 15.9494 17.8125H29.9876C29.9918 17.8125 29.9963 17.813 30.0005 17.813H30.0055C30.9723 17.8157 31.7578 18.6031 31.7578 19.5703C31.7578 20.5394 30.9691 21.3281 30 21.3281H29.9945C29.9799 21.3281 29.9648 21.3277 29.9496 21.3281ZM19.4531 7.03125C20.424 7.03125 21.2109 6.24435 21.2109 5.27344C21.2109 4.30435 21.9997 3.51562 22.9688 3.51562C23.9378 3.51562 24.7266 4.30435 24.7266 5.27344V8.78906C24.7266 9.75998 25.5135 10.5469 26.4844 10.5469C27.4553 10.5469 28.2422 9.75998 28.2422 8.78906V7.03125H31.0936L28.7242 14.2969H17.2133L14.8439 7.03125H19.4531ZM16.2804 24.8438H29.6503C32.3122 25.9557 34.7383 27.7066 36.7616 29.9666C35.8415 30.9164 35.2734 32.2092 35.2734 33.6328C35.2734 34.9823 35.7838 36.2146 36.6206 37.1484C35.7838 38.0823 35.2734 39.3146 35.2734 40.6641C35.2734 42.0135 35.7838 43.2458 36.6206 44.1797C35.7838 45.1135 35.2734 46.3458 35.2734 47.6953C35.2734 49.0448 35.7838 50.2771 36.6206 51.2109C35.7838 52.1448 35.2734 53.3771 35.2734 54.7266C35.2734 54.7627 35.2753 54.7984 35.2762 54.8341C32.3026 55.957 28.342 56.4844 22.9688 56.4844C16.4465 56.4844 11.9518 55.7043 8.82431 54.0298C5.20248 52.0908 3.51562 48.961 3.51562 44.1797C3.51562 35.8887 8.74878 27.9877 16.2804 24.8438Z" fill="#172A95"/>
</svg>
