<svg width="60" height="60" viewBox="0 0 60 60" fill="none" xmlns="http://www.w3.org/2000/svg">
<g clip-path="url(#clip0)">
<path d="M54.7246 8.35328C51.6985 5.2941 47.6106 3.60285 43.2139 3.59043C38.6884 3.57531 34.1533 5.29 30.5197 8.33816C26.387 4.69891 22.6488 2.92445 19.1286 2.92445C14.2123 2.92445 9.65103 4.86074 6.31599 8.34578C3.80935 10.8524 2.09185 14.1435 1.34736 17.8639C1.12447 18.982 1.84892 20.0691 2.96712 20.2928C4.08392 20.5144 5.17236 19.7913 5.39607 18.673C5.97955 15.755 7.30681 13.1932 9.26654 11.2329C11.8468 8.53703 15.3497 7.05285 19.1287 7.05285C21.8665 7.05285 25.1831 8.89762 28.951 12.4996C29.3735 12.9242 29.9287 13.1588 30.5143 13.1595C30.515 13.1595 30.5164 13.1595 30.517 13.1595C31.1011 13.1595 31.6564 12.9263 32.0795 12.5031C35.1215 9.46117 39.1605 7.71895 43.1651 7.71895C43.1783 7.71895 43.1906 7.71895 43.203 7.71895C46.5401 7.72785 49.5099 8.95199 51.7667 11.2329C54.4144 13.9983 55.8725 17.6204 55.8725 21.4336C55.8725 25.2497 54.3814 28.9619 51.8232 31.5779L30.5505 52.1416L13.6824 35.8438C12.8629 35.0519 11.5563 35.0759 10.7636 35.8934C9.97165 36.7136 9.99439 38.0202 10.8139 38.8122L29.1166 56.4957C29.5163 56.8824 30.0338 57.0757 30.5505 57.0757C31.0672 57.0757 31.5847 56.8824 31.9851 56.4964L54.7328 34.5055C58.0803 31.0838 60.0001 26.3195 60.0001 21.4335C60.0001 16.5516 58.1347 11.9147 54.7246 8.35328Z" fill="#172A95"/>
<path d="M56.2845 26.1812H39.633C39.0647 26.1812 38.5225 26.4144 38.133 26.8272L31.8736 33.4459L24.664 17.0918C24.3544 16.3892 23.6801 15.9165 22.9143 15.8649C22.1525 15.8161 21.4171 16.1911 21.0158 16.8454L15.2897 26.1812H2.06426C0.924023 26.1812 0 27.1052 0 28.2454C0 29.3857 0.924023 30.3097 2.06426 30.3097H16.4443C17.162 30.3097 17.8288 29.9368 18.2038 29.3244L22.4754 22.3611L29.35 37.9542C29.6286 38.5872 30.2059 39.0379 30.8871 39.1556C31.0041 39.1755 31.1217 39.1858 31.2387 39.1858C31.8015 39.1858 32.3457 38.956 32.7387 38.5404L40.5221 30.3096H56.2846C57.4247 30.3096 58.3488 29.3854 58.3488 28.2453C58.3486 27.1052 57.4246 26.1812 56.2845 26.1812Z" fill="#F5A84C"/>
</g>
<defs>
<clipPath id="clip0">
<rect width="60" height="60" fill="white"/>
</clipPath>
</defs>
</svg>
