<svg width="60" height="60" viewBox="0 0 60 60" fill="none" xmlns="http://www.w3.org/2000/svg">
<g clip-path="url(#clip0)">
<path d="M34.7437 52.4622L34.7592 52.4467L32.2739 49.9614L27.5147 54.7206L32.8094 60L35.2911 57.5111L33.956 56.1798C44.4113 54.6013 52.8215 46.7916 55.5263 37.0336L52.1393 36.0947C49.8192 44.4642 42.9886 50.7062 34.7437 52.4622Z" fill="#F5A84C"/>
<path d="M22.9666 55.523L23.9055 52.136C15.536 49.816 9.29402 42.9853 7.53805 34.7403L7.55351 34.7558L10.0388 32.2705L5.28147 27.5131L0.0211792 32.7735L2.50646 35.2587L3.81945 33.9458C5.39827 44.425 13.2278 52.8235 22.9666 55.523Z" fill="#F5A84C"/>
<path d="M10.5535 29.9985C10.5535 40.6855 19.3163 49.4467 30.0017 49.4467C40.6889 49.4467 49.45 40.6837 49.45 29.9985C49.45 19.3393 40.7255 10.6674 30.0017 10.6674C19.278 10.6674 10.5535 19.3392 10.5535 29.9985ZM19.4997 31.7558C19.5932 33.7451 19.8463 35.6735 20.2442 37.486C19.0481 37.9918 17.9309 38.5408 16.9209 39.0851C15.4401 36.9599 14.4635 34.4588 14.1656 31.7558H19.4997ZM28.2444 45.3481C26.4677 44.1806 25.2231 41.6728 24.5075 39.6681C25.7218 39.3025 26.9785 39.0238 28.2444 38.8845V45.3481ZM31.7591 38.8845C33.025 39.0238 34.2816 39.3025 35.496 39.6681C34.7807 41.6719 33.5362 44.1804 31.7591 45.3481V38.8845ZM31.7591 35.3545V31.7558L36.9852 31.7547C36.9045 33.3249 36.7159 34.8466 36.4264 36.2813C34.9241 35.8338 33.3534 35.5012 31.7591 35.3545ZM31.7591 28.2411V24.6425C33.3528 24.4958 34.9228 24.1634 36.4247 23.716C36.7081 25.1102 36.9035 26.6255 36.9862 28.2411H31.7591ZM31.7591 21.1124V14.7591C33.1632 15.6691 34.5077 17.6177 35.4877 20.3312C34.2759 20.6955 33.0222 20.9734 31.7591 21.1124ZM28.2444 21.1124C26.9813 20.9733 25.7276 20.6955 24.5158 20.3312C25.4957 17.6177 26.8403 15.6691 28.2444 14.7591V21.1124ZM28.2444 24.6425V28.2411H23.0171C23.0999 26.6255 23.2952 25.1102 23.5786 23.716C25.0805 24.1634 26.6507 24.4958 28.2444 24.6425ZM28.2444 31.7558V35.3545C26.6501 35.5012 25.0793 35.8338 23.577 36.2814C23.2875 34.8467 23.0991 33.3262 23.0183 31.756H28.2444V31.7558ZM21.2147 40.8921C21.6181 42.0184 22.0855 43.0901 22.683 44.1486C21.4566 43.5117 20.3227 42.7206 19.3079 41.8002C19.9117 41.4908 20.5495 41.1843 21.2147 40.8921ZM38.7887 40.8921C39.4539 41.1844 40.0917 41.4908 40.6956 41.8002C39.6807 42.7206 38.5469 43.5117 37.3205 44.1486C37.9176 43.0907 38.385 42.0191 38.7887 40.8921ZM39.7592 37.4859C40.1571 35.6735 40.4103 33.7439 40.5038 31.7546L45.8379 31.7557C45.5399 34.4586 44.5634 36.9597 43.0826 39.085C42.0725 38.5407 40.9553 37.9917 39.7592 37.4859ZM40.5037 28.2411C40.4097 26.2498 40.1549 24.322 39.7547 22.5129C40.939 22.0124 42.0463 21.4691 43.0486 20.9302C44.5461 23.0468 45.5344 25.5426 45.8364 28.2411H40.5037ZM38.7761 19.1104C38.3769 18.0084 37.9214 16.9779 37.3515 15.9687C38.5413 16.5853 39.6431 17.3464 40.6335 18.2289C40.0444 18.5293 39.4228 18.8265 38.7761 19.1104ZM21.2274 19.1104C20.5806 18.8265 19.959 18.5294 19.37 18.2289C20.3603 17.3464 21.4622 16.5853 22.6519 15.9687C22.0827 16.9768 21.627 18.0071 21.2274 19.1104ZM20.2488 22.5129C19.8486 24.322 19.5937 26.2498 19.4998 28.2411H14.1671C14.469 25.5425 15.4572 23.0468 16.9549 20.9302C17.9572 21.4691 19.0644 22.0123 20.2488 22.5129Z" fill="#172A95"/>
<path d="M24.7156 2.4889L26.0476 3.81701C15.5922 5.39537 7.18198 13.2055 4.47726 22.9632L7.86431 23.9021C10.1843 15.5327 17.0148 9.29076 25.2597 7.53479L25.2443 7.55026L27.7295 10.0355L32.4887 5.27633L27.1972 -3.8147e-06L24.7156 2.4889Z" fill="#F5A84C"/>
<path d="M56.1843 26.0511C54.6051 15.572 46.7756 7.1735 37.0369 4.47394L36.098 7.86098C44.4675 10.1809 50.7095 17.0115 52.4654 25.2565L52.45 25.241L49.9647 27.7263L54.722 32.4838L59.9789 27.2268L57.4936 24.7415L56.1843 26.0511Z" fill="#F5A84C"/>
</g>
<defs>
<clipPath id="clip0">
<rect width="60" height="60" fill="white"/>
</clipPath>
</defs>
</svg>
