<svg width="60" height="60" viewBox="0 0 60 60" fill="none" xmlns="http://www.w3.org/2000/svg">
<path d="M13.3594 11.2495C14.3303 11.2495 15.1172 10.4626 15.1172 9.49173C15.1172 8.61832 15.6807 7.73438 16.7578 7.73438H27.3953C28.7027 7.73438 29.2479 8.24066 30.1506 9.0802C31.1888 10.0452 32.6106 11.3672 35.2995 11.3672H44.4141C45.3845 11.3672 46.1719 10.5798 46.1719 9.60938C46.1719 8.63846 45.3845 7.85156 44.4141 7.85156H35.2995C33.9922 7.85156 33.4474 7.34482 32.5443 6.50528C31.506 5.54031 30.0842 4.21875 27.3953 4.21875H16.7578C13.8666 4.21875 11.6016 6.53503 11.6016 9.49173C11.6016 10.4626 12.3885 11.2495 13.3594 11.2495Z" fill="#F5A84C"/>
<path d="M35.625 3.51562H54.7266C55.697 3.51562 56.4844 2.72873 56.4844 1.75781C56.4844 0.786896 55.697 0 54.7266 0H35.625C34.6541 0 33.8672 0.786896 33.8672 1.75781C33.8672 2.72873 34.6541 3.51562 35.625 3.51562Z" fill="#F5A84C"/>
<path d="M50.4987 9.60938C50.4987 10.5798 51.286 11.3672 52.2565 11.3672H58.2413C59.2122 11.3672 59.9991 10.5798 59.9991 9.60938C59.9991 8.63846 59.2122 7.85156 58.2413 7.85156H52.2565C51.286 7.85156 50.4987 8.63846 50.4987 9.60938Z" fill="#F5A84C"/>
<path d="M58.2417 56.4844H56.4844V25.0781C56.4844 24.4945 56.1951 23.9493 55.7121 23.6224C55.2292 23.2956 54.6153 23.2292 54.0738 23.4462L36.4957 30.4774C35.8282 30.7443 35.3906 31.3907 35.3906 32.1094V42.4214H29.8984L29.8759 42.2511C29.3843 38.568 27.7711 26.4862 27.7711 26.4862C27.6549 25.6133 26.9096 24.9609 26.0289 24.9609H19.3259L18.6264 16.3806C18.5518 15.4683 17.7896 14.7656 16.8745 14.7656H9.84283C8.92731 14.7656 8.16513 15.4683 8.09097 16.3811C7.68814 21.335 5.97015 42.4214 5.97015 42.4214H5.27344C4.30252 42.4214 3.51562 43.2083 3.51562 44.1792V56.4844H1.75781C0.786896 56.4844 0 57.2713 0 58.2422C0 59.2131 0.786896 60 1.75781 60H58.2417C59.2126 60 59.9995 59.2131 59.9995 58.2422C59.9995 57.2713 59.2126 56.4844 58.2417 56.4844ZM24.4899 28.4766C24.4899 28.4766 25.8733 38.8367 26.3516 42.4214H20.8141C20.7472 41.6766 19.6124 28.4766 19.6124 28.4766H24.4899ZM11.4633 18.2812H15.2541C15.2541 18.2812 17.2279 41.8126 17.2842 42.4214H9.49722C9.49722 42.4214 11.104 22.6973 11.4633 18.2812ZM7.03125 56.4844V45.937H37.1484C38.1194 45.937 38.9062 45.1501 38.9062 44.1792V33.2996L52.9688 27.6746V56.4844H7.03125Z" fill="#172A95"/>
<path d="M15.8203 49.4531H12.3047C11.3338 49.4531 10.5469 50.24 10.5469 51.2109C10.5469 52.1819 11.3338 52.9688 12.3047 52.9688H15.8203C16.7908 52.9688 17.5781 52.1819 17.5781 51.2109C17.5781 50.24 16.7912 49.4531 15.8203 49.4531Z" fill="#F5A84C"/>
<path d="M26.3727 49.4531H22.8571C21.8861 49.4531 21.0992 50.24 21.0992 51.2109C21.0992 52.1819 21.8861 52.9688 22.8571 52.9688H26.3727C27.3436 52.9688 28.1305 52.1819 28.1305 51.2109C28.1305 50.24 27.3436 49.4531 26.3727 49.4531Z" fill="#F5A84C"/>
<path d="M36.925 49.4531H33.4094C32.4385 49.4531 31.6516 50.24 31.6516 51.2109C31.6516 52.1819 32.4385 52.9688 33.4094 52.9688H36.925C37.896 52.9688 38.6829 52.1819 38.6829 51.2109C38.6829 50.24 37.896 49.4531 36.925 49.4531Z" fill="#F5A84C"/>
<path d="M47.4609 49.4531H43.9453C42.9744 49.4531 42.1875 50.24 42.1875 51.2109C42.1875 52.1819 42.9744 52.9688 43.9453 52.9688H47.4609C48.4319 52.9688 49.2188 52.1819 49.2188 51.2109C49.2188 50.24 48.4319 49.4531 47.4609 49.4531Z" fill="#F5A84C"/>
<path d="M47.4609 42.4219H43.9453C42.9744 42.4219 42.1875 43.2088 42.1875 44.1797C42.1875 45.1506 42.9744 45.9375 43.9453 45.9375H47.4609C48.4319 45.9375 49.2188 45.1506 49.2188 44.1797C49.2188 43.2088 48.4319 42.4219 47.4609 42.4219Z" fill="#F5A84C"/>
<path d="M47.4609 35.3906H43.9453C42.9744 35.3906 42.1875 36.1775 42.1875 37.1484C42.1875 38.1194 42.9744 38.9062 43.9453 38.9062H47.4609C48.4319 38.9062 49.2188 38.1194 49.2188 37.1484C49.2188 36.1775 48.4319 35.3906 47.4609 35.3906Z" fill="#F5A84C"/>
</svg>
