<svg width="60" height="60" viewBox="0 0 60 60" fill="none" xmlns="http://www.w3.org/2000/svg">
<g clip-path="url(#clip0)">
<path d="M34.0698 12.732C34.0698 10.5149 32.2679 8.71202 30.0514 8.71202C27.8354 8.71202 26.0324 10.5149 26.0324 12.732C26.0324 14.948 27.8352 16.75 30.0514 16.75C32.268 16.75 34.0698 14.948 34.0698 12.732Z" fill="#F5A84C"/>
<path d="M57.4263 39.0692L51.9165 28.1164L40.9637 33.6331C37.7786 35.2394 36.4923 39.1389 38.0984 42.324C38.3526 42.8274 38.6622 43.2866 39.0215 43.695C38.2871 44.3802 37.4476 44.9753 36.5244 45.4707V31.9906C39.8044 31.6757 42.3781 28.9068 42.3781 25.5471C42.3781 23.5559 41.4742 21.7728 40.0568 20.5837C41.778 18.3964 42.7847 15.6507 42.7847 12.7319C42.7849 5.71193 37.0724 0 30.0523 0C23.0319 0 17.3199 5.71193 17.3199 12.7321C17.3199 15.6922 18.3551 18.4732 20.1206 20.6758C18.7651 21.8642 17.9085 23.6057 17.9085 25.5458C17.9085 28.8428 20.3874 31.5729 23.5786 31.9704V45.3588C22.6674 44.8503 21.8378 44.2367 21.1143 43.5376C21.4194 43.1673 21.6859 42.7607 21.9078 42.32C23.5106 39.1337 22.2222 35.2374 19.0371 33.6301L8.08787 28.1154L2.57722 39.0672C1.8003 40.6109 1.6711 42.3654 2.21346 44.0077C2.75582 45.6494 3.90691 46.9821 5.44595 47.7569C6.34485 48.2099 7.35027 48.45 8.35871 48.45C8.42373 48.45 8.48792 48.4479 8.55395 48.4461C12.9755 55.5013 21.1417 60.0002 30.1421 60.0002C39.0942 60.0002 47.2896 55.4953 51.7197 48.4481C52.7015 48.4379 53.6812 48.1998 54.5549 47.758C57.743 46.1548 59.0304 42.2553 57.4263 39.0692ZM52.6521 43.9785C52.3291 44.141 51.985 44.2166 51.6462 44.2166C50.8634 44.2166 50.1177 43.7948 49.7081 43.0766C46.8408 50.4578 39.166 55.7666 30.1422 55.7666C21.001 55.7666 13.2349 50.3185 10.461 42.782L10.3591 42.9816C9.96614 43.7666 9.17713 44.2156 8.35787 44.2156C8.01797 44.2156 7.67488 44.14 7.35145 43.9765C6.24622 43.4215 5.80182 42.0737 6.35762 40.9698L9.96496 33.8015L17.1318 37.4103C18.2377 37.9682 18.6816 39.3142 18.1261 40.4189C17.5693 41.5246 16.2248 41.9677 15.1166 41.4127L14.6256 41.1654C16.5067 46.3875 21.5992 50.3191 27.8116 51.1213V27.787H24.3812C23.1449 27.787 22.1414 26.7825 22.1414 25.5471C22.1414 24.3102 23.1448 23.3068 24.3812 23.3068H27.8116V20.9207C24.2098 19.933 21.553 16.6415 21.553 12.7319C21.553 8.04503 25.3641 4.23237 30.0515 4.23237C34.7388 4.23237 38.5517 8.04352 38.5517 12.7319C38.5517 16.6415 35.8941 19.933 32.2923 20.9207V23.3068H35.9062C37.1432 23.3068 38.1461 24.3102 38.1461 25.5471C38.1461 26.7825 37.1432 27.787 35.9062 27.787H32.2923V51.1468C38.6595 50.3912 43.8807 46.3514 45.7271 40.9901L44.8876 41.413C43.7829 41.9668 42.4359 41.5249 41.8791 40.4192C41.3221 39.3145 41.768 37.9685 42.8718 37.4107L50.0391 33.8018L53.6461 40.9701C54.2007 42.0747 53.7568 43.4217 52.6521 43.9785Z" fill="#172A95"/>
</g>
<defs>
<clipPath id="clip0">
<rect width="60" height="60" fill="white"/>
</clipPath>
</defs>
</svg>
