<svg width="60" height="60" viewBox="0 0 60 60" fill="none" xmlns="http://www.w3.org/2000/svg">
<path d="M59.1769 49.618L34.0366 6.0737C33.0547 4.37357 31.5834 3.39853 30 3.39853C28.4161 3.39853 26.9449 4.37357 25.9634 6.0737L0.823062 49.618C-0.158383 51.3177 -0.267331 53.0796 0.5246 54.4511C1.31607 55.8225 2.89627 56.609 4.85917 56.609H55.1404C57.1037 56.609 58.6835 55.8225 59.4754 54.4511C60.2673 53.0792 60.1584 51.3177 59.1769 49.618ZM56.4308 52.6928C56.3155 52.8919 55.8719 53.0929 55.1404 53.0929H4.85962C4.12766 53.0929 3.68454 52.8924 3.56964 52.6928C3.45429 52.4937 3.50235 52.0094 3.86811 51.3758L29.0085 7.83151C29.3742 7.19797 29.7697 6.91461 29.9995 6.91461C30.2298 6.91461 30.6258 7.19797 30.9915 7.83151L56.1319 51.3758C56.4977 52.0094 56.5457 52.4937 56.4308 52.6928Z" fill="#172A95"/>
<path d="M30 41.7952C27.4732 41.7952 25.4173 43.851 25.4173 46.3778C25.4173 48.9042 27.4732 50.9601 30 50.9601C32.5269 50.9601 34.5827 48.9042 34.5827 46.3778C34.5827 43.851 32.5269 41.7952 30 41.7952ZM30 47.444C29.4118 47.444 28.9334 46.9656 28.9334 46.3774C28.9334 45.7896 29.4118 45.3112 30 45.3112C30.5882 45.3112 31.0666 45.7896 31.0666 46.3774C31.0666 46.9656 30.5882 47.444 30 47.444Z" fill="#F5A84C"/>
<path d="M30 15.0568C27.4732 15.0568 25.4173 17.1126 25.4173 19.6395V35.0798C25.4173 37.6067 27.4732 39.6621 30 39.6621C32.5269 39.6621 34.5827 37.6067 34.5827 35.0798V19.6395C34.5827 17.1126 32.5269 15.0568 30 15.0568ZM31.0666 35.0798C31.0666 35.6681 30.5882 36.1464 30 36.1464C29.4118 36.1464 28.9334 35.6681 28.9334 35.0798V19.6395C28.9334 19.0513 29.4118 18.5729 30 18.5729C30.5882 18.5729 31.0666 19.0513 31.0666 19.6395V35.0798Z" fill="#F5A84C"/>
</svg>
