<svg width="60" height="60" viewBox="0 0 60 60" fill="none" xmlns="http://www.w3.org/2000/svg">
<path d="M49.2856 0H10.7142C4.79983 0.00703125 0.00703125 4.79983 0 10.7142V49.2856C0 50.4691 0.959388 51.4285 2.1429 51.4285H6.42857V53.5714C6.42857 57.1218 9.30673 60 12.8571 60C16.4075 60 19.2857 57.1218 19.2857 53.5714V51.4285H40.7143V53.5714C40.7143 57.1218 43.5925 60 47.1429 60C50.6933 60 53.5714 57.1218 53.5714 53.5714V51.4285H57.8571C59.0406 51.4285 60 50.4691 60 49.2856V10.7142C59.9928 4.79983 55.2 0.00703125 49.2856 0ZM15 53.5714C15 54.7549 14.0406 55.7143 12.8571 55.7143C11.6736 55.7143 10.7142 54.7549 10.7142 53.5714V51.4285H14.9999V53.5714H15ZM49.2856 53.5714C49.2856 54.7549 48.3262 55.7143 47.1427 55.7143C45.9592 55.7143 44.9998 54.7549 44.9998 53.5714V51.4285H49.2855V53.5714H49.2856ZM55.7142 47.1429H4.28567V10.7142C4.28567 7.16383 7.16383 4.28567 10.7142 4.28567H49.2856C52.836 4.28567 55.7142 7.16383 55.7142 10.7142V47.1429Z" fill="#172A95"/>
<path d="M49.2855 8.57138H10.7141C9.53062 8.57138 8.57123 9.53077 8.57123 10.7143V23.5714C8.57123 24.7549 9.53062 25.7143 10.7141 25.7143H49.2855C50.469 25.7143 51.4284 24.7549 51.4284 23.5714V10.7143C51.4284 9.53077 50.469 8.57138 49.2855 8.57138ZM27.8571 21.4285H12.857V12.8571H27.8571V21.4285ZM47.1428 21.4285H32.1427V12.8571H47.1428V21.4285Z" fill="#172A95"/>
<path d="M17.1429 40.7142C19.5098 40.7142 21.4286 38.7954 21.4286 36.4285C21.4286 34.0616 19.5098 32.1428 17.1429 32.1428C14.776 32.1428 12.8572 34.0616 12.8572 36.4285C12.8572 38.7954 14.776 40.7142 17.1429 40.7142Z" fill="#F5A84C"/>
<path d="M42.8569 40.7142C45.2238 40.7142 47.1426 38.7954 47.1426 36.4285C47.1426 34.0616 45.2238 32.1428 42.8569 32.1428C40.49 32.1428 38.5712 34.0616 38.5712 36.4285C38.5712 38.7954 40.49 40.7142 42.8569 40.7142Z" fill="#F5A84C"/>
</svg>
