<svg width="60" height="60" viewBox="0 0 60 60" fill="none" xmlns="http://www.w3.org/2000/svg">
<g clip-path="url(#clip0)">
<path d="M14.0625 26.4844C6.30844 26.4844 0 32.7928 0 40.5469C0 48.3009 6.30844 54.6094 14.0625 54.6094C21.8166 54.6094 28.125 48.3009 28.125 40.5469C28.125 32.7928 21.8166 26.4844 14.0625 26.4844ZM14.0625 51.0938C8.24707 51.0938 3.51562 46.3623 3.51562 40.5469C3.51562 34.7314 8.24707 30 14.0625 30C19.8779 30 24.6094 34.7314 24.6094 40.5469C24.6094 46.3623 19.8779 51.0938 14.0625 51.0938Z" fill="#F5A84C"/>
<path d="M14.0625 35.2734C11.1548 35.2734 8.78906 37.6392 8.78906 40.5469C8.78906 43.4546 11.1548 45.8203 14.0625 45.8203C16.9702 45.8203 19.3359 43.4546 19.3359 40.5469C19.3359 37.6392 16.9702 35.2734 14.0625 35.2734ZM14.0625 42.3047C13.0934 42.3047 12.3047 41.516 12.3047 40.5469C12.3047 39.5778 13.0934 38.7891 14.0625 38.7891C15.0316 38.7891 15.8203 39.5778 15.8203 40.5469C15.8203 41.516 15.0316 42.3047 14.0625 42.3047Z" fill="#F5A84C"/>
<path d="M56.4844 36.2086V30C56.4844 26.1227 53.3304 22.9688 49.4531 22.9688H45.9375V14.1797C45.9375 13.2106 46.7262 12.4219 47.6953 12.4219V8.90625C44.7876 8.90625 42.4219 11.272 42.4219 14.1797V22.9688H34.7063L30.4875 8.90625H33.3984V5.39062H5.27344V8.90625H8.78906V20.1256C5.81863 20.8937 3.02673 22.3027 0.63858 24.2752L2.87704 26.9861C6.0141 24.3956 9.98657 22.9688 14.0625 22.9688C23.7552 22.9688 31.6406 30.8542 31.6406 40.5469V45.8203H39.0536C39.8932 50.8022 44.2365 54.6094 49.4531 54.6094C55.2686 54.6094 60 49.8779 60 44.0625C60 40.946 58.6409 38.1413 56.4844 36.2086ZM12.3047 19.5277V8.90625H26.8172L31.0359 22.9688H25.7089C22.3691 20.7486 18.3646 19.4531 14.0625 19.4531C13.4743 19.4531 12.8879 19.4788 12.3047 19.5277ZM29.7702 26.4844H49.4531C51.3918 26.4844 52.9688 28.0614 52.9688 30V34.119C51.8687 33.7289 50.6854 33.5156 49.4531 33.5156H33.9496C33.0208 30.8968 31.5894 28.5141 29.7702 26.4844ZM34.8615 37.0312H41.5993C40.2969 38.4842 39.3915 40.2992 39.0536 42.3047H35.1562V40.5469C35.1562 39.3494 35.0546 38.1752 34.8615 37.0312ZM49.4531 51.0938C45.5759 51.0938 42.4219 47.9398 42.4219 44.0625C42.4219 40.1852 45.5759 37.0312 49.4531 37.0312C53.3304 37.0312 56.4844 40.1852 56.4844 44.0625C56.4844 47.9398 53.3304 51.0938 49.4531 51.0938Z" fill="#172A95"/>
<path d="M51.2109 44.0625C51.2109 45.0334 50.424 45.8203 49.4531 45.8203C48.4822 45.8203 47.6953 45.0334 47.6953 44.0625C47.6953 43.0916 48.4822 42.3047 49.4531 42.3047C50.424 42.3047 51.2109 43.0916 51.2109 44.0625Z" fill="#F5A84C"/>
</g>
<defs>
<clipPath id="clip0">
<rect width="60" height="60" fill="white"/>
</clipPath>
</defs>
</svg>
